<?xml version="1.0" encoding="UTF-8" standalone="no"?>
<!-- Created with Inkscape (http://www.inkscape.org/) -->

<svg
   version="1.1"
   id="svg2"
   xml:space="preserve"
   width="221.21466"
   height="221.21866"
   viewBox="0 0 221.21466 221.21866"
   sodipodi:docname="carre.svg"
   inkscape:version="1.1 (ce6663b3b7, 2021-05-25)"
   inkscape:export-filename="/home/bob/Projects/starter/static/carre.png"
   inkscape:export-xdpi="96"
   inkscape:export-ydpi="96"
   xmlns:inkscape="http://www.inkscape.org/namespaces/inkscape"
   xmlns:sodipodi="http://sodipodi.sourceforge.net/DTD/sodipodi-0.dtd"
   xmlns="http://www.w3.org/2000/svg"
   xmlns:svg="http://www.w3.org/2000/svg"><defs
     id="defs6"><clipPath
       clipPathUnits="userSpaceOnUse"
       id="clipPath16"><path
         d="M 0,279.467 H 331.733 V 0 H 0 Z"
         id="path14" /></clipPath></defs><sodipodi:namedview
     id="namedview4"
     pagecolor="#ffffff"
     bordercolor="#666666"
     borderopacity="1.0"
     inkscape:pageshadow="2"
     inkscape:pageopacity="0.0"
     inkscape:pagecheckerboard="0"
     showgrid="false"
     inkscape:zoom="4.6857052"
     inkscape:cx="71.387334"
     inkscape:cy="106.92094"
     inkscape:window-width="2488"
     inkscape:window-height="1377"
     inkscape:window-x="72"
     inkscape:window-y="27"
     inkscape:window-maximized="1"
     inkscape:current-layer="g8"
     fit-margin-top="0"
     fit-margin-left="0"
     fit-margin-right="0"
     fit-margin-bottom="0"
     inkscape:snap-page="false" /><g
     id="g8"
     inkscape:groupmode="layer"
     inkscape:label="Logo IEA gold"
     transform="matrix(1.3333333,0,0,-1.3333333,-104.3932,343.66039)"><g
       id="g69958"
       transform="matrix(0.80976116,0,0,0.80976116,30.026137,33.786114)"><g
         id="g70259"
         transform="matrix(0.90319318,0,0,0.90319318,16.411927,11.673225)"><g
           id="g34"
           transform="matrix(1.139012,0,0,1.139012,191.37651,173.1747)"
           style="fill:#000000"><path
             d="M 0,0 V 5.57 H 0.435 L 0.836,8.04 0.153,8.564 H -0.934 L -1.642,8.04 -1.298,5.57 h 0.491 V 0 h -0.012 c -0.772,0.422 -1.889,0.689 -3.096,0.8 v 6.087 h 0.438 l 0.394,2.474 -0.68,0.524 H -4.849 L -5.554,9.361 -5.211,6.887 h 0.495 V 0.841 C -6.576,0.905 -8.507,0.632 -9.646,0 h -32.771 v 5.57 h 0.435 l 0.4,2.47 -0.683,0.524 h -1.086 l -0.705,-0.524 0.345,-2.47 h 0.49 V 0 h -0.025 c -0.764,0.419 -1.883,0.686 -3.084,0.8 v 6.087 h 0.434 l 0.403,2.474 -0.683,0.524 h -1.091 l -0.704,-0.524 0.341,-2.474 h 0.494 V 0.841 C -48.995,0.908 -50.931,0.635 -52.076,0 h -36.99 v -2.064 h 37.619 l 0.267,0.19 c 1.27,0.911 5.752,0.909 7.053,-0.003 l 0.267,-0.187 h 34.839 l 0.266,0.19 c 1.274,0.911 5.751,0.909 7.05,-0.003 l 0.267,-0.187 H 36.169 V 0 Z"
             style="fill:#000000;fill-opacity:1;fill-rule:nonzero;stroke:none"
             id="path36" /></g><g
           id="g38"
           transform="matrix(1.139012,0,0,1.139012,161.25078,164.14325)"
           style="fill:#000000"><path
             d="m 0,0 c -10.304,0 -18.693,-6.649 -18.693,-14.823 h 1.933 c 0,6.538 8.088,11.857 16.76,11.857 8.672,0 16.761,-5.319 16.761,-11.857 h 1.933 C 18.694,-6.649 10.308,0 0,0"
             style="fill:#000000;fill-opacity:1;fill-rule:nonzero;stroke:none"
             id="path40" /></g><g
           id="g42"
           transform="matrix(1.139012,0,0,1.139012,161.25534,164.14325)"
           style="fill:#000000"><path
             d="m 0,0 c -10.308,0 -18.697,-6.649 -18.697,-14.823 h 1.933 c 0,6.538 8.089,11.857 16.764,11.857 8.669,0 16.761,-5.319 16.761,-11.857 H 18.69 C 18.69,-6.649 10.301,0 0,0"
             style="fill:#000000;fill-opacity:1;fill-rule:nonzero;stroke:none"
             id="path44" /></g><g
           id="g46"
           transform="matrix(1.139012,0,0,1.139012,161.25135,164.14325)"
           style="fill:#000000"><path
             d="m 0,0 c -10.308,0 -18.694,-6.649 -18.694,-14.823 h 1.932 c 0,6.538 8.09,11.857 16.762,11.857 8.672,0 16.76,-5.319 16.76,-11.857 h 1.934 C 18.694,-6.649 10.305,0 0,0"
             style="fill:#000000;fill-opacity:1;fill-rule:nonzero;stroke:none"
             id="path48" /></g><g
           id="g50"
           transform="matrix(1.139012,0,0,1.139012,185.41777,169.43065)"
           style="fill:#000000"><path
             d="M 0,0 C -0.763,0 -2.344,-0.082 -3.461,-0.61 H -38.985 C -40.1,-0.082 -41.68,0 -42.445,0 c -0.761,0 -2.34,-0.082 -3.456,-0.61 h -37.934 l 1.936,-1.549 h 34.867 v -8.037 l 0.33,-0.232 c 0.84,-0.578 2.346,-0.765 3.484,-0.813 v -8.221 h 1.551 v 8.221 c 1.139,0.048 2.644,0.235 3.482,0.813 l 0.329,0.232 v 8.037 h 33.267 v -8.037 l 0.334,-0.232 c 0.831,-0.578 2.34,-0.765 3.481,-0.813 v -8.221 h 1.549 v 8.221 c 1.136,0.048 2.645,0.235 3.48,0.813 l 0.336,0.232 v 8.037 h 34.347 l 2.463,1.549 H 3.461 C 2.343,-0.082 0.762,0 0,0 m -39.401,-9.323 h -6.084 v 7.196 c 0.328,0.248 1.438,0.578 3.04,0.578 1.604,0 2.715,-0.33 3.044,-0.578 z m 42.442,0 h -6.083 v 7.196 c 0.327,0.248 1.438,0.578 3.042,0.578 1.6,0 2.712,-0.33 3.041,-0.578 z"
             style="fill:#000000;fill-opacity:1;fill-rule:nonzero;stroke:none"
             id="path52" /></g></g><g
         aria-label="IEA"
         transform="matrix(1.4426318,0,0,-1.4426318,-72.719213,-84.194846)"
         id="text5386"
         style="font-weight:bold;font-size:42px;line-height:1.25;font-family:'Bodoni Moda';-inkscape-font-specification:'Bodoni Moda Bold';stroke-width:0.442254"><path
           d="m 121.63513,-189.49129 v -0.819 h 4.62 v -29.862 h -4.62 v -0.819 h 13.65 v 0.819 h -5.04 v 29.862 h 5.04 v 0.819 z"
           style="font-weight:normal;-inkscape-font-specification:'Bodoni Moda'"
           id="path37791" /><path
           d="m 144.8966,-189.3744 v -0.819 h 3.78 v -29.862 h -3.78 v -0.819 h 22.407 v 8.61 h -0.819 q 0,-2.247 -0.651,-4.011 -0.63,-1.764 -2.1,-2.772 -1.449,-1.008 -3.906,-1.008 h -7.14 v 29.862 h 6.699 q 2.877,0 4.515,-1.05 1.638,-1.05 2.31,-2.982 0.693,-1.932 0.693,-4.599 h 0.819 v 9.45 z m 14.448,-11.697 q 0,-1.407 -0.546,-2.331 -0.546,-0.924 -1.491,-1.386 -0.924,-0.462 -2.121,-0.462 h -3.507 v -0.819 h 3.507 q 1.197,0 2.121,-0.42 0.945,-0.42 1.491,-1.302 0.546,-0.882 0.546,-2.289 h 0.819 v 9.009 z"
           style="font-weight:normal;-inkscape-font-specification:'Bodoni Moda'"
           id="path37793" /><path
           d="m 181.7926,-199.3984 v -0.819 h 13.608 v 0.819 z m 7.938,-22.26 10.836,31.29 h 3.276 v 0.819 h -12.18 v -0.819 h 4.305 l -8.253,-25.557 -8.904,25.557 h 4.452 v 0.819 h -9.24 v -0.819 h 3.843 l 11.004,-31.29 z"
           style="font-weight:normal;-inkscape-font-specification:'Bodoni Moda'"
           id="path37795" /></g><g
         id="g74"
         transform="matrix(1.6829939,0,0,1.6829939,200.67153,124.55945)"
         style="fill:#000000"><text
           xml:space="preserve"
           style="font-size:24px;line-height:1.25;font-family:'Open Sans Condensed';-inkscape-font-specification:'Open Sans Condensed, ';stroke-width:0.75"
           x="-55.266609"
           y="7.0781522"
           id="text40679"
           transform="scale(1,-1)"><tspan
             sodipodi:role="line"
             id="tspan40677"
             style="font-style:normal;font-variant:normal;font-weight:100;font-stretch:normal;font-size:24px;font-family:Roboto;-inkscape-font-specification:'Roboto Thin';stroke-width:0.75"
             x="-55.266609"
             y="7.0781522">PARIS</tspan></text></g></g><rect
       style="fill:none;stroke:#000000;stroke-width:7.50000019;stroke-miterlimit:4;stroke-dasharray:none;stroke-opacity:1"
       id="rect1213"
       width="163.51294"
       height="163.51294"
       x="79.493935"
       y="-256.31906"
       transform="scale(1,-1)"
       inkscape:export-filename="/home/bob/Projects/starter/static/carre.png"
       inkscape:export-xdpi="260.72"
       inkscape:export-ydpi="260.72" /></g></svg>
