<?xml version="1.0" encoding="UTF-8" standalone="no"?>
<!-- Created with Inkscape (http://www.inkscape.org/) -->

<svg
   width="158.75mm"
   height="26.570953mm"
   viewBox="0 0 158.75 26.570955"
   version="1.1"
   id="svg895"
   inkscape:version="1.1 (ce6663b3b7, 2021-05-25)"
   sodipodi:docname="logo_text.svg"
   inkscape:export-filename="/home/bob/Projects/starter/static/icon_text.png"
   inkscape:export-xdpi="96"
   inkscape:export-ydpi="96"
   xmlns:inkscape="http://www.inkscape.org/namespaces/inkscape"
   xmlns:sodipodi="http://sodipodi.sourceforge.net/DTD/sodipodi-0.dtd"
   xmlns:xlink="http://www.w3.org/1999/xlink"
   xmlns="http://www.w3.org/2000/svg"
   xmlns:svg="http://www.w3.org/2000/svg">
  <sodipodi:namedview
     id="namedview897"
     pagecolor="#ffffff"
     bordercolor="#666666"
     borderopacity="1.0"
     inkscape:pageshadow="2"
     inkscape:pageopacity="0"
     inkscape:pagecheckerboard="0"
     inkscape:document-units="mm"
     showgrid="false"
     inkscape:zoom="1.5554293"
     inkscape:cx="238.1979"
     inkscape:cy="135.01096"
     inkscape:window-width="2488"
     inkscape:window-height="1377"
     inkscape:window-x="72"
     inkscape:window-y="27"
     inkscape:window-maximized="1"
     inkscape:current-layer="g950"
     fit-margin-top="0"
     fit-margin-left="0"
     fit-margin-right="0"
     fit-margin-bottom="0"
     units="px" />
  <defs
     id="defs892">
    <rect
       x="349.39285"
       y="86.956802"
       width="385.06674"
       height="127.13488"
       id="rect192279" />
    <rect
       x="103.81981"
       y="89.462555"
       width="413.91495"
       height="161.40225"
       id="rect66685" />
    <rect
       x="232.29366"
       y="596.97681"
       width="100.35568"
       height="106.91044"
       id="rect71386" />
    <linearGradient
       inkscape:collect="always"
       id="linearGradient2296">
      <stop
         style="stop-color:#ffffff;stop-opacity:1;"
         offset="0"
         id="stop2292" />
      <stop
         style="stop-color:#ffffff;stop-opacity:1"
         offset="0.54981339"
         id="stop2700" />
      <stop
         style="stop-color:#ffffff;stop-opacity:0;"
         offset="1"
         id="stop2294" />
    </linearGradient>
    <filter
       style="color-interpolation-filters:sRGB"
       inkscape:label="Blur"
       id="filter1701"
       x="-0.684982"
       y="-0.38594523"
       width="2.3699639"
       height="1.7718905">
      <feGaussianBlur
         stdDeviation="2 2"
         result="blur"
         id="feGaussianBlur1699" />
    </filter>
    <linearGradient
       inkscape:collect="always"
       xlink:href="#linearGradient2296"
       id="linearGradient2298"
       x1="59.736069"
       y1="137.80115"
       x2="97.27301"
       y2="137.80115"
       gradientUnits="userSpaceOnUse"
       gradientTransform="matrix(0.74986365,0,0,0.49539524,-122.19693,-204.177)" />
  </defs>
  <g
     inkscape:label="Layer 1"
     inkscape:groupmode="layer"
     id="layer1"
     transform="translate(-38.806406,-130.03694)">
    <g
       id="g195616"
       transform="matrix(1.1533209,0,0,1.1533209,-5.9498313,-19.937375)">
      <g
         id="g950"
         transform="matrix(1.9036136,0,0,1.9036136,-35.065994,-117.50313)">
        <g
           id="g34"
           transform="matrix(0.35277777,0,0,-0.35277777,70.226909,133.81284)"
           style="fill:#000000">
          <path
             d="M 0,0 V 5.57 H 0.435 L 0.836,8.04 0.153,8.564 H -0.934 L -1.642,8.04 -1.298,5.57 h 0.491 V 0 h -0.012 c -0.772,0.422 -1.889,0.689 -3.096,0.8 v 6.087 h 0.438 l 0.394,2.474 -0.68,0.524 H -4.849 L -5.554,9.361 -5.211,6.887 h 0.495 V 0.841 C -6.576,0.905 -8.507,0.632 -9.646,0 h -32.771 v 5.57 h 0.435 l 0.4,2.47 -0.683,0.524 h -1.086 l -0.705,-0.524 0.345,-2.47 h 0.49 V 0 h -0.025 c -0.764,0.419 -1.883,0.686 -3.084,0.8 v 6.087 h 0.434 l 0.403,2.474 -0.683,0.524 h -1.091 l -0.704,-0.524 0.341,-2.474 h 0.494 V 0.841 C -48.995,0.908 -50.931,0.635 -52.076,0 h -36.99 v -2.064 h 37.619 l 0.267,0.19 c 1.27,0.911 5.752,0.909 7.053,-0.003 l 0.267,-0.187 h 34.839 l 0.266,0.19 c 1.274,0.911 5.751,0.909 7.05,-0.003 l 0.267,-0.187 H 36.169 V 0 Z"
             style="fill:#000000;fill-opacity:1;fill-rule:nonzero;stroke:none"
             id="path36" />
        </g>
        <g
           id="g38"
           transform="matrix(0.35277777,0,0,-0.35277777,60.896572,136.61009)"
           style="fill:#000000">
          <path
             d="m 0,0 c -10.304,0 -18.693,-6.649 -18.693,-14.823 h 1.933 c 0,6.538 8.088,11.857 16.76,11.857 8.672,0 16.761,-5.319 16.761,-11.857 h 1.933 C 18.694,-6.649 10.308,0 0,0"
             style="fill:#000000;fill-opacity:1;fill-rule:nonzero;stroke:none"
             id="path40" />
        </g>
        <g
           id="g46"
           transform="matrix(0.35277777,0,0,-0.35277777,45.921932,136.61009)"
           style="fill:#000000">
          <path
             d="m 0,-1.1265989e-5 c -10.308,0 -18.694,-6.649000034011 -18.694,-14.822999734011 h 1.932 c 0,6.5379997 8.09,11.8569997 16.762,11.8569997 8.672,0 16.76,-5.319 16.76,-11.8569997 h 1.934 C 18.694,-6.6490113 10.305,-1.1265989e-5 0,-1.1265989e-5"
             style="fill:#000000;fill-opacity:1;fill-rule:nonzero;stroke:none"
             id="path48" />
        </g>
        <g
           id="g50"
           transform="matrix(0.35277777,0,0,-0.35277777,68.382058,134.97246)"
           style="fill:#000000">
          <path
             d="M 0,0 C -0.763,0 -2.344,-0.082 -3.461,-0.61 H -38.985 C -40.1,-0.082 -41.68,0 -42.445,0 c -0.761,0 -2.34,-0.082 -3.456,-0.61 h -37.934 l 1.936,-1.549 h 34.867 v -8.037 l 0.33,-0.232 c 0.84,-0.578 2.346,-0.765 3.484,-0.813 v -8.221 h 1.551 v 8.221 c 1.139,0.048 2.644,0.235 3.482,0.813 l 0.329,0.232 v 8.037 h 33.267 v -8.037 l 0.334,-0.232 c 0.831,-0.578 2.34,-0.765 3.481,-0.813 v -8.221 h 1.549 v 8.221 c 1.136,0.048 2.645,0.235 3.48,0.813 l 0.336,0.232 v 8.037 h 34.347 l 2.463,1.549 H 3.461 C 2.343,-0.082 0.762,0 0,0 m -39.401,-9.323 h -6.084 v 7.196 c 0.328,0.248 1.438,0.578 3.04,0.578 1.604,0 2.715,-0.33 3.044,-0.578 z m 42.442,0 h -6.083 v 7.196 c 0.327,0.248 1.438,0.578 3.042,0.578 1.6,0 2.712,-0.33 3.041,-0.578 z"
             style="fill:#000000;fill-opacity:1;fill-rule:nonzero;stroke:none"
             id="path52" />
        </g>
        <rect
           style="fill:url(#linearGradient2298);fill-opacity:1;stroke:none;stroke-width:0.161261"
           id="rect2290"
           width="28.147587"
           height="11.748075"
           x="-77.402992"
           y="-141.785"
           transform="scale(-1)" />
        <path
           id="rect3042"
           style="fill:#ffffff;stroke-width:0.125883"
           d="m 73.473953,133.74025 h 17.461979 v 7.73677 H 73.473953 Z" />
        <g
           aria-label="PARIS"
           id="text6302"
           style="font-size:11.7234px;line-height:1.25;font-family:'Playfair Display';-inkscape-font-specification:'Playfair Display';stroke-width:0.28363">
          <path
             d="m 62.757897,133.67522 q 0.246192,0.0117 0.644787,0.0234 0.398596,0.0117 0.785468,0.0117 0.551,0 1.055106,-0.0117 0.504106,-0.0117 0.715127,-0.0117 1.418532,0 2.121936,0.64479 0.703404,0.64479 0.703404,1.66472 0,0.42205 -0.140681,0.89098 -0.140681,0.45721 -0.492383,0.85581 -0.339978,0.38687 -0.937872,0.63306 -0.597893,0.2462 -1.512318,0.2462 h -1.125447 v -0.23447 h 1.008213 q 0.832361,0 1.266127,-0.31653 0.445489,-0.31654 0.597893,-0.83237 0.164128,-0.51583 0.164128,-1.11372 0,-1.11372 -0.445489,-1.66472 -0.433766,-0.551 -1.500596,-0.551 -0.539276,0 -0.703404,0.1993 -0.164127,0.19929 -0.164127,0.80891 v 5.81481 q 0,0.42204 0.08206,0.63306 0.09379,0.21102 0.351702,0.28136 0.257914,0.0703 0.750297,0.0938 v 0.23447 q -0.304808,-0.0234 -0.773744,-0.0234 -0.468936,-0.0117 -0.949596,-0.0117 -0.457212,0 -0.855808,0.0117 -0.398595,0 -0.644787,0.0234 v -0.23447 q 0.398596,-0.0234 0.597894,-0.0938 0.211021,-0.0703 0.281361,-0.28136 0.07034,-0.21102 0.07034,-0.63306 v -5.81481 q 0,-0.43377 -0.07034,-0.63306 -0.07034,-0.21102 -0.281361,-0.28136 -0.199298,-0.0821 -0.597894,-0.0938 z"
             id="path1424" />
          <path
             d="m 72.429687,133.6166 2.86051,7.37402 q 0.175851,0.44549 0.398596,0.5979 0.222744,0.14068 0.410319,0.1524 v 0.23447 q -0.234468,-0.0234 -0.574447,-0.0234 -0.339979,-0.0117 -0.679957,-0.0117 -0.457213,0 -0.855808,0.0117 -0.398596,0 -0.644787,0.0234 v -0.23447 q 0.597893,-0.0234 0.762021,-0.1993 0.164127,-0.18757 -0.07034,-0.78547 l -2.180552,-5.82653 0.187574,-0.1524 -2.039871,5.29898 q -0.246192,0.63306 -0.234468,0.99649 0.01172,0.3517 0.269638,0.5041 0.257915,0.15241 0.750297,0.16413 v 0.23447 q -0.328255,-0.0234 -0.69168,-0.0234 -0.351702,-0.0117 -0.656511,-0.0117 -0.293085,0 -0.504106,0.0117 -0.199298,0 -0.375149,0.0234 v -0.23447 q 0.234468,-0.0586 0.48066,-0.26964 0.246191,-0.22274 0.445489,-0.7503 l 2.754999,-7.10438 q 0.04689,0 0.09379,0 0.04689,0 0.09379,0 z m 1.430255,4.98245 v 0.23447 h -3.493573 l 0.117234,-0.23447 z"
             id="path1426" />
          <path
             d="m 76.286671,133.67522 q 0.246192,0.0117 0.644787,0.0234 0.398596,0.0117 0.785468,0.0117 0.551,0 1.055106,-0.0117 0.504106,-0.0117 0.715128,-0.0117 1.418531,0 2.121935,0.58617 0.703404,0.58617 0.703404,1.45371 0,0.3517 -0.140681,0.75029 -0.140681,0.3986 -0.492383,0.7503 -0.339978,0.3517 -0.937872,0.58617 -0.597893,0.22275 -1.512318,0.22275 h -1.125447 v -0.23447 h 1.008213 q 0.832361,0 1.266127,-0.25792 0.445489,-0.26964 0.597893,-0.7034 0.164128,-0.44549 0.164128,-0.98477 0,-0.92615 -0.445489,-1.43025 -0.433766,-0.51583 -1.500595,-0.51583 -0.539277,0 -0.703404,0.1993 -0.164128,0.19929 -0.164128,0.80891 v 5.81481 q 0,0.42204 0.07034,0.63306 0.07034,0.21102 0.269639,0.28136 0.211021,0.0703 0.609616,0.0938 v 0.23447 q -0.269638,-0.0234 -0.679957,-0.0234 -0.398595,-0.0117 -0.808914,-0.0117 -0.457213,0 -0.855809,0.0117 -0.398595,0 -0.644787,0.0234 v -0.23447 q 0.398596,-0.0234 0.597894,-0.0938 0.211021,-0.0703 0.281361,-0.28136 0.07034,-0.21102 0.07034,-0.63306 v -5.81481 q 0,-0.43377 -0.07034,-0.63306 -0.07034,-0.21102 -0.281361,-0.28136 -0.199298,-0.0821 -0.597894,-0.0938 z m 1.864021,4.16181 q 0.633064,0.0234 0.996489,0.0586 0.363425,0.0235 0.58617,0.0469 0.234468,0.0234 0.445489,0.0586 0.785468,0.12896 1.125447,0.48066 0.351702,0.33998 0.515829,1.06683 l 0.293085,1.19579 q 0.117234,0.51583 0.234468,0.7503 0.128958,0.22274 0.386873,0.21102 0.199297,-0.0117 0.328255,-0.12896 0.140681,-0.11723 0.293085,-0.31653 l 0.175851,0.12896 q -0.246192,0.36342 -0.51583,0.56272 -0.257915,0.18758 -0.738574,0.18758 -0.433766,0 -0.762021,-0.25792 -0.328255,-0.25791 -0.492383,-1.00821 l -0.257915,-1.17234 q -0.10551,-0.50411 -0.246191,-0.86753 -0.128958,-0.37515 -0.375149,-0.58617 -0.234468,-0.21102 -0.703404,-0.21102 h -1.266127 z"
             id="path1428" />
          <path
             d="m 86.872887,133.67522 v 0.23447 q -0.398596,0.0117 -0.609617,0.0938 -0.199298,0.0703 -0.269638,0.28136 -0.07034,0.19929 -0.07034,0.63306 v 5.81481 q 0,0.42204 0.07034,0.63306 0.07034,0.21102 0.269638,0.28136 0.211021,0.0703 0.609617,0.0938 v 0.23447 q -0.269638,-0.0234 -0.679957,-0.0234 -0.398596,-0.0117 -0.808915,-0.0117 -0.457213,0 -0.855808,0.0117 -0.398596,0 -0.644787,0.0234 v -0.23447 q 0.398595,-0.0234 0.597893,-0.0938 0.211021,-0.0703 0.281362,-0.28136 0.07034,-0.21102 0.07034,-0.63306 v -5.81481 q 0,-0.43377 -0.07034,-0.63306 -0.07034,-0.21102 -0.281362,-0.28136 -0.199298,-0.0821 -0.597893,-0.0938 v -0.23447 q 0.246191,0.0117 0.644787,0.0234 0.398595,0.0117 0.855808,0.0117 0.410319,0 0.808915,-0.0117 0.410319,-0.0117 0.679957,-0.0234 z"
             id="path1430" />
          <path
             d="m 90.366446,133.54626 q 0.58617,0 0.890978,0.14068 0.304809,0.12896 0.539277,0.29309 0.14068,0.0821 0.222744,0.12896 0.09379,0.0352 0.175851,0.0352 0.187575,0 0.257915,-0.51583 h 0.269638 q -0.01172,0.19929 -0.03517,0.48066 -0.01172,0.26963 -0.02345,0.72685 0,0.44549 0,1.18406 h -0.269638 q -0.03517,-0.56272 -0.246191,-1.07855 -0.211022,-0.51583 -0.621341,-0.84409 -0.398595,-0.32825 -1.055106,-0.32825 -0.62134,0 -1.031659,0.37515 -0.398595,0.37515 -0.398595,0.98476 0,0.52755 0.269638,0.89098 0.269638,0.3517 0.715127,0.64479 0.457213,0.28136 0.984766,0.60961 0.609617,0.37515 1.078553,0.7503 0.480659,0.36343 0.750297,0.80892 0.281362,0.44549 0.281362,1.07855 0,0.7503 -0.339979,1.24268 -0.339978,0.49238 -0.902702,0.73857 -0.562723,0.2462 -1.24268,0.2462 -0.62134,0 -0.984766,-0.14069 -0.363425,-0.14068 -0.62134,-0.29308 -0.257915,-0.16413 -0.398595,-0.16413 -0.187575,0 -0.257915,0.51583 H 88.10383 q 0.02345,-0.24619 0.02345,-0.57445 0.01172,-0.33997 0.01172,-0.87925 0.01172,-0.53928 0.01172,-1.35991 h 0.269638 q 0.04689,0.7034 0.257915,1.31302 0.222745,0.60961 0.668234,0.98476 0.457213,0.36343 1.20751,0.36343 0.574447,0 1.043383,-0.36343 0.480659,-0.37515 0.480659,-1.19579 0,-0.71512 -0.504106,-1.18406 -0.504106,-0.46893 -1.324744,-0.96132 -0.551,-0.33998 -1.031659,-0.69168 -0.48066,-0.3517 -0.773745,-0.80891 -0.281361,-0.46894 -0.281361,-1.12545 0,-0.69168 0.304808,-1.13717 0.316532,-0.45721 0.820638,-0.66823 0.504106,-0.22275 1.078553,-0.22275 z"
             id="path1432" />
        </g>
        <g
           aria-label="IAS"
           id="text6302-3"
           style="font-size:11.7095px;line-height:1.25;font-family:'Playfair Display';-inkscape-font-specification:'Playfair Display';letter-spacing:0px;stroke-width:0.283294">
          <path
             d="m 96.528725,141.78413 v -8.35902 h 0.588906 v 8.35902 z"
             style="font-weight:300;font-family:'Open Sans';-inkscape-font-specification:'Open Sans Light';fill:#4d4d4d"
             id="path1435" />
          <path
             d="m 104.71051,141.78413 -1.13779,-2.95596 h -3.51056 l -1.16066,2.95596 h -0.600341 l 3.287581,-8.38761 h 0.53745 l 3.20181,8.38761 z m -1.32647,-3.48769 -1.15494,-3.13321 q -0.0457,-0.12006 -0.11435,-0.30874 -0.0629,-0.18868 -0.13722,-0.40023 -0.0686,-0.21155 -0.13722,-0.40023 -0.0572,0.20012 -0.12579,0.40023 -0.0686,0.20011 -0.1315,0.38879 -0.0629,0.18296 -0.12007,0.33162 l -1.20068,3.12177 z"
             style="font-weight:300;font-family:'Open Sans';-inkscape-font-specification:'Open Sans Light';fill:#4d4d4d"
             id="path1437" />
          <path
             d="m 111.11414,139.62863 q 0,0.74899 -0.37735,1.25785 -0.37736,0.50314 -1.02344,0.76043 -0.64608,0.25157 -1.46369,0.25157 -0.50886,0 -0.92624,-0.0515 -0.41166,-0.0457 -0.749,-0.12579 -0.33161,-0.08 -0.60605,-0.18296 v -0.58891 q 0.44596,0.17153 1.02915,0.30303 0.58891,0.12579 1.28073,0.12579 0.6518,0 1.15494,-0.18868 0.50886,-0.18868 0.80045,-0.57175 0.2916,-0.38308 0.2916,-0.96626 0,-0.51458 -0.24586,-0.84048 -0.24013,-0.33162 -0.72612,-0.56604 -0.48599,-0.24013 -1.22355,-0.48599 -0.51458,-0.17724 -0.93768,-0.37164 -0.41738,-0.20011 -0.71469,-0.4574 -0.29731,-0.263 -0.4574,-0.62893 -0.15438,-0.37164 -0.15438,-0.87478 0,-0.69182 0.34877,-1.16066 0.35449,-0.47455 0.95483,-0.71469 0.60606,-0.24585 1.36077,-0.24585 0.60034,0 1.13779,0.11435 0.54317,0.10863 1.04631,0.33162 l -0.20583,0.50886 q -0.50314,-0.21727 -1.00629,-0.32019 -0.50314,-0.10291 -0.99485,-0.10291 -0.5889,0 -1.05202,0.17724 -0.45741,0.17153 -0.72613,0.5203 -0.26872,0.34877 -0.26872,0.8805 0,0.54888 0.24585,0.88621 0.25157,0.33734 0.70897,0.56032 0.46312,0.22298 1.09205,0.43453 0.74328,0.25157 1.28073,0.53173 0.53745,0.27444 0.82904,0.69754 0.29731,0.4231 0.29731,1.10349 z"
             style="font-weight:300;font-family:'Open Sans';-inkscape-font-specification:'Open Sans Light';fill:#4d4d4d"
             id="path1439" />
        </g>
      </g>
      <text
         xml:space="preserve"
         transform="scale(0.26458333)"
         id="text71384"
         style="font-style:normal;font-weight:normal;font-size:40px;line-height:1.25;font-family:sans-serif;white-space:pre;shape-inside:url(#rect71386);fill:#000000;fill-opacity:1;stroke:none" />
      <text
         xml:space="preserve"
         transform="matrix(0.26458333,0,0,0.26458333,96.617792,133.75647)"
         id="text66683"
         style="font-style:normal;font-weight:normal;font-size:40px;line-height:1.25;font-family:sans-serif;white-space:pre;shape-inside:url(#rect66685);fill:#000000;fill-opacity:1;stroke:none" />
      <text
         xml:space="preserve"
         transform="matrix(0.26458333,0,0,0.26458333,38.806404,130.03693)"
         id="text192277"
         style="font-style:normal;font-weight:normal;font-size:40px;line-height:1.25;font-family:sans-serif;white-space:pre;shape-inside:url(#rect192279);fill:#000000;fill-opacity:1;stroke:none" />
    </g>
  </g>
</svg>
